<svg width="1000px" height="388px"
 viewBox="0.00 0.00 1384.89 536.69" xmlns="http://www.w3.org/2000/svg" xmlns:xlink="http://www.w3.org/1999/xlink">
<g id="graph0" class="graph" transform="scale(1.0 1.0) rotate(0) translate(4 532.69)">
<title>ContextMapGraph</title>
<polygon fill="white" stroke="transparent" points="-4,4 -4,-532.69 1380.89,-532.69 1380.89,4 -4,4"/>
<!-- CustomerManagementContext -->
<g id="node1" class="node">
<title>CustomerManagementContext</title>
<polygon fill="none" stroke="black" stroke-width="2" points="1057.34,-294.51 1070.28,-293.71 1083.3,-293.04 1096.34,-292.48 1109.34,-292.06 1122.26,-291.77 1135.05,-291.6 1147.66,-291.57 1160.03,-291.68 1172.14,-291.92 1183.93,-292.29 1195.36,-292.8 1206.41,-293.44 1217.03,-294.22 1227.2,-295.12 1236.88,-296.15 1246.06,-297.31 1254.7,-298.59 1262.8,-299.98 1270.33,-301.49 1277.3,-303.11 1283.67,-304.83 1289.46,-306.64 1294.66,-308.55 1299.26,-310.54 1303.28,-312.61 1306.71,-314.75 1309.56,-316.95 1311.85,-319.21 1313.58,-321.52 1314.76,-323.87 1315.42,-326.25 1315.56,-328.66 1315.2,-331.08 1314.37,-333.52 1313.06,-335.95 1311.32,-338.38 1309.14,-340.8 1306.56,-343.19 1303.58,-345.55 1300.23,-347.88 1296.52,-350.16 1292.46,-352.4 1288.08,-354.57 1283.38,-356.69 1278.38,-358.74 1273.08,-360.71 1267.51,-362.6 1261.67,-364.41 1255.56,-366.13 1249.21,-367.76 1242.61,-369.29 1235.76,-370.73 1228.69,-372.06 1221.38,-373.29 1213.86,-374.41 1206.11,-375.43 1198.15,-376.33 1189.98,-377.12 1181.6,-377.8 1173.02,-378.37 1164.26,-378.83 1155.3,-379.18 1146.16,-379.41 1136.86,-379.54 1127.4,-379.55 1117.78,-379.45 1108.04,-379.25 1098.17,-378.94 1088.2,-378.53 1078.15,-378.01 1068.03,-377.4 1057.88,-376.68 1047.7,-375.87 1037.54,-374.97 1027.41,-373.97 1017.34,-372.89 1007.38,-371.71 997.54,-370.46 987.87,-369.13 978.4,-367.72 969.16,-366.23 960.2,-364.67 951.55,-363.05 943.24,-361.36 935.32,-359.61 927.83,-357.8 920.8,-355.93 914.27,-354.02 908.26,-352.06 902.83,-350.05 898,-348.01 893.79,-345.93 890.25,-343.83 887.38,-341.69 885.23,-339.54 883.8,-337.37 883.11,-335.19 883.19,-333 884.03,-330.81 885.64,-328.62 888.04,-326.45 891.2,-324.29 895.14,-322.15 899.84,-320.03 905.29,-317.95 911.47,-315.9 918.37,-313.9 925.95,-311.95 934.18,-310.06 943.05,-308.22 952.51,-306.46 962.53,-304.77 973.06,-303.15 984.06,-301.62 995.49,-300.18 1007.3,-298.84 1019.44,-297.59 1031.86,-296.45 1044.51,-295.43 1057.34,-294.51"/>
<text text-anchor="middle" x="1111.99" y="-332.9" font-family="sans-serif" font-size="16.00">CustomerManagementContext</text>
</g>
<!-- ProductCatalogManagementContext -->
<g id="node2" class="node">
<title>ProductCatalogManagementContext</title>
<polygon fill="none" stroke="black" stroke-width="2" points="976.69,-229.51 963.77,-227.91 951.3,-226.24 939.34,-224.47 927.93,-222.63 917.12,-220.72 906.97,-218.75 897.5,-216.72 888.76,-214.65 880.79,-212.53 873.61,-210.37 867.25,-208.19 861.74,-205.98 857.09,-203.76 853.32,-201.52 850.45,-199.29 848.46,-197.05 847.38,-194.83 847.19,-192.61 847.89,-190.42 849.46,-188.25 851.89,-186.11 855.17,-184 859.26,-181.93 864.14,-179.91 869.79,-177.92 876.16,-175.99 883.23,-174.11 890.95,-172.29 899.29,-170.52 908.2,-168.82 917.64,-167.18 927.57,-165.61 937.94,-164.11 948.7,-162.68 959.81,-161.33 971.23,-160.05 982.9,-158.85 994.79,-157.73 1006.84,-156.7 1019.02,-155.75 1031.29,-154.88 1043.6,-154.1 1055.93,-153.42 1068.22,-152.82 1080.46,-152.32 1092.6,-151.91 1104.62,-151.6 1116.49,-151.38 1128.19,-151.27 1139.69,-151.25 1150.97,-151.34 1162.02,-151.53 1172.82,-151.82 1183.35,-152.22 1193.61,-152.72 1203.57,-153.33 1213.24,-154.04 1222.6,-154.86 1231.65,-155.78 1240.39,-156.8 1248.79,-157.93 1256.87,-159.17 1264.62,-160.5 1272.03,-161.93 1279.1,-163.46 1285.83,-165.08 1292.21,-166.8 1298.23,-168.6 1303.9,-170.48 1309.2,-172.45 1314.14,-174.49 1318.69,-176.6 1322.85,-178.77 1326.62,-181 1329.98,-183.29 1332.92,-185.62 1335.43,-187.99 1337.5,-190.39 1339.11,-192.82 1340.25,-195.27 1340.9,-197.72 1341.06,-200.18 1340.7,-202.63 1339.81,-205.07 1338.38,-207.48 1336.4,-209.86 1333.85,-212.2 1330.71,-214.49 1326.99,-216.72 1322.67,-218.9 1317.74,-220.99 1312.21,-223.01 1306.05,-224.94 1299.29,-226.78 1291.91,-228.51 1283.93,-230.14 1275.34,-231.65 1266.17,-233.05 1256.42,-234.32 1246.12,-235.46 1235.28,-236.47 1223.92,-237.35 1212.08,-238.08 1199.79,-238.68 1187.07,-239.13 1173.97,-239.44 1160.52,-239.61 1146.78,-239.63 1132.77,-239.51 1118.56,-239.25 1104.18,-238.85 1089.7,-238.31 1075.17,-237.64 1060.64,-236.83 1046.17,-235.9 1031.82,-234.85 1017.63,-233.68 1003.68,-232.39 990.01,-231 976.69,-229.51"/>
<text text-anchor="middle" x="1111.99" y="-189.71" font-family="sans-serif" font-size="16.00">ProductCatalogManagementContext</text>
</g>
<!-- CustomerManagementContext&#45;&gt;ProductCatalogManagementContext -->
<g id="edge1" class="edge">
<title>CustomerManagementContext&#45;&gt;ProductCatalogManagementContext</title>
<path fill="none" stroke="black" stroke-width="2" d="M1111.99,-291.8C1111.99,-275.12 1111.99,-256.12 1111.99,-239.35"/>
<text text-anchor="middle" x="1167.99" y="-263.79" font-family="sans-serif" font-size="12.00">Customer/Supplier</text>
<polygon fill="white" stroke="transparent" points="1104.99,-230.35 1104.99,-247.35 1118.99,-247.35 1118.99,-230.35 1104.99,-230.35"/>
<text text-anchor="start" x="1106.99" y="-235.75" font-family="sans-serif" font-size="12.00">D</text>
<polygon fill="white" stroke="transparent" points="1104.99,-282.8 1104.99,-299.8 1118.99,-299.8 1118.99,-282.8 1104.99,-282.8"/>
<text text-anchor="start" x="1106.99" y="-288.2" font-family="sans-serif" font-size="12.00">U</text>
</g>
<!-- InventoryManagementContext -->
<g id="node3" class="node">
<title>InventoryManagementContext</title>
<polygon fill="none" stroke="black" stroke-width="2" points="1139.52,-89.79 1126.72,-90.69 1113.83,-91.47 1100.89,-92.12 1087.97,-92.64 1075.12,-93.03 1062.37,-93.29 1049.78,-93.42 1037.4,-93.4 1025.27,-93.25 1013.43,-92.96 1001.93,-92.54 990.79,-91.97 980.05,-91.27 969.74,-90.44 959.9,-89.48 950.54,-88.38 941.7,-87.16 933.38,-85.82 925.6,-84.36 918.38,-82.79 911.73,-81.11 905.65,-79.33 900.14,-77.46 895.22,-75.49 890.87,-73.44 887.09,-71.32 883.87,-69.12 881.22,-66.87 879.11,-64.56 877.54,-62.21 876.49,-59.82 875.96,-57.41 875.91,-54.97 876.35,-52.52 877.25,-50.06 878.59,-47.61 880.37,-45.16 882.55,-42.74 885.14,-40.34 888.11,-37.98 891.44,-35.66 895.12,-33.39 899.14,-31.17 903.49,-29.01 908.15,-26.91 913.12,-24.89 918.37,-22.95 923.91,-21.09 929.72,-19.31 935.8,-17.63 942.15,-16.04 948.75,-14.55 955.59,-13.16 962.69,-11.87 970.02,-10.69 977.59,-9.61 985.4,-8.64 993.43,-7.78 1001.69,-7.04 1010.16,-6.4 1018.84,-5.88 1027.73,-5.46 1036.82,-5.16 1046.09,-4.97 1055.55,-4.88 1065.16,-4.91 1074.93,-5.04 1084.84,-5.28 1094.87,-5.62 1104.99,-6.06 1115.2,-6.6 1125.46,-7.25 1135.76,-7.98 1146.07,-8.82 1156.35,-9.74 1166.58,-10.76 1176.73,-11.86 1186.76,-13.05 1196.64,-14.31 1206.33,-15.66 1215.8,-17.09 1225.01,-18.58 1233.92,-20.15 1242.5,-21.79 1250.7,-23.49 1258.48,-25.25 1265.81,-27.07 1272.65,-28.95 1278.97,-30.87 1284.73,-32.84 1289.89,-34.86 1294.43,-36.91 1298.32,-39 1301.53,-41.13 1304.04,-43.27 1305.82,-45.44 1306.87,-47.63 1307.15,-49.83 1306.67,-52.04 1305.42,-54.24 1303.39,-56.45 1300.58,-58.64 1297,-60.82 1292.65,-62.98 1287.55,-65.11 1281.71,-67.21 1275.16,-69.28 1267.91,-71.29 1259.99,-73.26 1251.43,-75.17 1242.27,-77.01 1232.54,-78.79 1222.29,-80.48 1211.55,-82.1 1200.37,-83.63 1188.79,-85.07 1176.87,-86.41 1164.65,-87.65 1152.18,-88.78 1139.52,-89.79"/>
<text text-anchor="middle" x="1077.99" y="-44.01" font-family="sans-serif" font-size="16.00">InventoryManagementContext</text>
</g>
<!-- ProductCatalogManagementContext&#45;&gt;InventoryManagementContext -->
<g id="edge2" class="edge">
<title>ProductCatalogManagementContext&#45;&gt;InventoryManagementContext</title>
<path fill="none" stroke="black" stroke-width="2" d="M1102.24,-151.33C1097.91,-133 1092.8,-111.4 1088.39,-92.76"/>
<text text-anchor="middle" x="1137.99" y="-117.02" font-family="sans-serif" font-size="12.00">Shared Kernel</text>
</g>
<!-- OrderManagementContext -->
<g id="node4" class="node">
<title>OrderManagementContext</title>
<polygon fill="none" stroke="black" stroke-width="2" points="818.16,-45.25 819.04,-48.1 819.41,-50.94 819.26,-53.76 818.6,-56.55 817.42,-59.29 815.72,-61.97 813.52,-64.59 810.8,-67.14 807.58,-69.6 803.86,-71.97 799.66,-74.23 794.98,-76.39 789.84,-78.43 784.25,-80.36 778.23,-82.15 771.79,-83.81 764.95,-85.34 757.73,-86.73 750.15,-87.98 742.23,-89.09 734.01,-90.05 725.49,-90.87 716.71,-91.56 707.69,-92.1 698.46,-92.5 689.05,-92.77 679.48,-92.9 669.79,-92.9 660,-92.78 650.14,-92.54 640.25,-92.18 630.34,-91.71 620.46,-91.13 610.63,-90.45 600.89,-89.67 591.25,-88.81 581.74,-87.85 572.41,-86.82 563.26,-85.71 554.34,-84.53 545.65,-83.29 537.24,-81.98 529.12,-80.62 521.32,-79.21 513.85,-77.74 506.74,-76.23 500,-74.68 493.66,-73.1 487.73,-71.47 482.22,-69.82 477.15,-68.13 472.53,-66.41 468.37,-64.66 464.68,-62.89 461.47,-61.1 458.74,-59.28 456.51,-57.44 454.76,-55.58 453.52,-53.7 452.77,-51.81 452.51,-49.89 452.75,-47.96 453.47,-46.02 454.69,-44.06 456.38,-42.1 458.55,-40.12 461.19,-38.15 464.28,-36.16 467.82,-34.18 471.79,-32.2 476.19,-30.23 481,-28.28 486.21,-26.33 491.8,-24.41 497.75,-22.52 504.06,-20.66 510.7,-18.83 517.67,-17.05 524.93,-15.33 532.47,-13.65 540.27,-12.05 548.31,-10.51 556.58,-9.06 565.05,-7.68 573.7,-6.41 582.5,-5.23 591.45,-4.16 600.51,-3.2 609.66,-2.36 618.88,-1.65 628.16,-1.07 637.45,-0.63 646.75,-0.34 656.03,-0.19 665.26,-0.19 674.43,-0.34 683.51,-0.65 692.47,-1.12 701.3,-1.75 709.96,-2.54 718.45,-3.49 726.73,-4.6 734.78,-5.86 742.59,-7.28 750.12,-8.84 757.37,-10.55 764.3,-12.39 770.9,-14.37 777.15,-16.47 783.03,-18.69 788.53,-21.02 793.62,-23.45 798.3,-25.97 802.53,-28.57 806.33,-31.24 809.66,-33.97 812.52,-36.75 814.89,-39.56 816.78,-42.4 818.16,-45.25"/>
<text text-anchor="middle" x="634.99" y="-44.01" font-family="sans-serif" font-size="16.00">OrderManagementContext</text>
</g>
<!-- ProductCatalogManagementContext&#45;&gt;OrderManagementContext -->
<g id="edge3" class="edge">
<title>ProductCatalogManagementContext&#45;&gt;OrderManagementContext</title>
<path fill="none" stroke="black" stroke-width="2" d="M1053.1,-153.37C1028.39,-138.68 998.74,-123.23 969.99,-113.62 914.66,-95.15 897.36,-106.13 839.99,-95.62 819.25,-91.83 797.44,-87.36 776.09,-82.72"/>
<text text-anchor="middle" x="1032.49" y="-117.02" font-family="sans-serif" font-size="12.00">Partnership</text>
</g>
<!-- PaymentManagementContext -->
<g id="node5" class="node">
<title>PaymentManagementContext</title>
<polygon fill="none" stroke="black" stroke-width="2" points="23.57,-209.47 18.61,-206.82 14.19,-204.14 10.33,-201.44 7.07,-198.74 4.4,-196.04 2.35,-193.36 0.93,-190.7 0.15,-188.07 0.01,-185.49 0.52,-182.96 1.69,-180.49 3.5,-178.09 5.96,-175.77 9.06,-173.53 12.79,-171.37 17.15,-169.31 22.11,-167.35 27.67,-165.5 33.8,-163.75 40.48,-162.11 47.69,-160.58 55.4,-159.17 63.59,-157.87 72.23,-156.69 81.29,-155.63 90.73,-154.68 100.51,-153.85 110.62,-153.13 121,-152.52 131.63,-152.02 142.46,-151.63 153.46,-151.35 164.58,-151.17 175.8,-151.1 187.07,-151.12 198.36,-151.23 209.63,-151.44 220.83,-151.73 231.95,-152.11 242.93,-152.58 253.76,-153.12 264.39,-153.75 274.79,-154.44 284.94,-155.21 294.81,-156.06 304.37,-156.97 313.6,-157.95 322.47,-158.99 330.96,-160.1 339.06,-161.27 346.75,-162.51 354.01,-163.8 360.83,-165.16 367.19,-166.57 373.09,-168.04 378.52,-169.57 383.46,-171.16 387.92,-172.8 391.89,-174.5 395.37,-176.25 398.36,-178.06 400.86,-179.91 402.86,-181.82 404.37,-183.77 405.4,-185.77 405.94,-187.81 406,-189.89 405.6,-192 404.72,-194.15 403.39,-196.33 401.6,-198.53 399.36,-200.75 396.69,-202.98 393.59,-205.22 390.07,-207.47 386.13,-209.71 381.8,-211.93 377.06,-214.14 371.95,-216.33 366.46,-218.47 360.6,-220.58 354.39,-222.64 347.84,-224.63 340.96,-226.56 333.75,-228.42 326.24,-230.19 318.43,-231.87 310.35,-233.45 301.99,-234.93 293.38,-236.28 284.53,-237.52 275.46,-238.62 266.18,-239.59 256.71,-240.42 247.08,-241.1 237.3,-241.63 227.39,-242 217.37,-242.22 207.27,-242.27 197.11,-242.16 186.91,-241.88 176.7,-241.44 166.51,-240.83 156.36,-240.06 146.28,-239.13 136.3,-238.03 126.45,-236.79 116.75,-235.39 107.24,-233.85 97.95,-232.17 88.91,-230.35 80.14,-228.42 71.69,-226.36 63.57,-224.2 55.82,-221.93 48.47,-219.58 41.54,-217.15 35.07,-214.64 29.07,-212.08 23.57,-209.47"/>
<text text-anchor="middle" x="210.99" y="-189.71" font-family="sans-serif" font-size="16.00">PaymentManagementContext</text>
</g>
<!-- PaymentManagementContext&#45;&gt;OrderManagementContext -->
<g id="edge4" class="edge">
<title>PaymentManagementContext&#45;&gt;OrderManagementContext</title>
<path fill="none" stroke="black" stroke-width="2" d="M313.36,-157.81C381.24,-134.81 469.81,-104.79 536.82,-82.08"/>
<text text-anchor="middle" x="490.99" y="-117.02" font-family="sans-serif" font-size="12.00">Customer/Supplier</text>
<polygon fill="white" stroke="transparent" points="529.82,-73.08 529.82,-90.08 543.82,-90.08 543.82,-73.08 529.82,-73.08"/>
<text text-anchor="start" x="531.82" y="-78.48" font-family="sans-serif" font-size="12.00">D</text>
<polygon fill="white" stroke="transparent" points="306.36,-148.81 306.36,-165.81 320.36,-165.81 320.36,-148.81 306.36,-148.81"/>
<text text-anchor="start" x="308.36" y="-154.21" font-family="sans-serif" font-size="12.00">U</text>
</g>
<!-- SecurityManagementContext -->
<g id="node6" class="node">
<title>SecurityManagementContext</title>
<polygon fill="none" stroke="black" stroke-width="2" points="923.85,-493.64 919.59,-490.94 915.88,-488.22 912.72,-485.48 910.15,-482.75 908.17,-480.03 906.79,-477.33 906.02,-474.66 905.87,-472.03 906.35,-469.45 907.45,-466.94 909.18,-464.49 911.53,-462.11 914.5,-459.82 918.08,-457.62 922.26,-455.51 927.03,-453.51 932.38,-451.61 938.28,-449.82 944.73,-448.15 951.69,-446.59 959.14,-445.14 967.07,-443.82 975.43,-442.62 984.21,-441.54 993.37,-440.58 1002.88,-439.74 1012.7,-439.02 1022.81,-438.42 1033.17,-437.93 1043.74,-437.56 1054.49,-437.3 1065.37,-437.14 1076.36,-437.09 1087.41,-437.14 1098.5,-437.29 1109.57,-437.53 1120.61,-437.86 1131.56,-438.29 1142.4,-438.79 1153.1,-439.38 1163.62,-440.05 1173.93,-440.79 1184,-441.61 1193.8,-442.49 1203.31,-443.44 1212.5,-444.46 1221.34,-445.54 1229.82,-446.69 1237.92,-447.89 1245.61,-449.15 1252.88,-450.47 1259.71,-451.84 1266.1,-453.27 1272.02,-454.76 1277.48,-456.29 1282.45,-457.88 1286.94,-459.52 1290.94,-461.21 1294.45,-462.95 1297.45,-464.74 1299.97,-466.57 1301.98,-468.45 1303.5,-470.37 1304.52,-472.34 1305.06,-474.34 1305.11,-476.38 1304.68,-478.46 1303.78,-480.57 1302.41,-482.7 1300.58,-484.86 1298.3,-487.03 1295.58,-489.22 1292.42,-491.42 1288.84,-493.62 1284.85,-495.82 1280.45,-498.01 1275.65,-500.18 1270.47,-502.33 1264.92,-504.45 1259.01,-506.53 1252.76,-508.57 1246.16,-510.55 1239.24,-512.47 1232.01,-514.31 1224.49,-516.08 1216.68,-517.77 1208.6,-519.35 1200.27,-520.84 1191.7,-522.21 1182.91,-523.47 1173.91,-524.6 1164.73,-525.6 1155.37,-526.46 1145.86,-527.18 1136.23,-527.75 1126.48,-528.17 1116.64,-528.43 1106.74,-528.52 1096.79,-528.46 1086.82,-528.23 1076.86,-527.84 1066.92,-527.28 1057.03,-526.56 1047.23,-525.67 1037.54,-524.63 1027.98,-523.43 1018.58,-522.07 1009.37,-520.57 1000.38,-518.92 991.64,-517.14 983.18,-515.23 975.01,-513.19 967.18,-511.05 959.71,-508.79 952.62,-506.45 945.95,-504.02 939.71,-501.51 933.93,-498.94 928.64,-496.31 923.85,-493.64"/>
<text text-anchor="middle" x="1111.99" y="-476.05" font-family="sans-serif" font-size="16.00">SecurityManagementContext</text>
</g>
<!-- SecurityManagementContext&#45;&gt;CustomerManagementContext -->
<g id="edge5" class="edge">
<title>SecurityManagementContext&#45;&gt;CustomerManagementContext</title>
<path fill="none" stroke="black" stroke-width="2" d="M1034.25,-437.5C1023.85,-426.58 1018.9,-413.91 1025.99,-400.02 1030.6,-390.98 1037.2,-382.96 1044.72,-375.92"/>
<text text-anchor="middle" x="1101.49" y="-403.42" font-family="sans-serif" font-size="12.00"> &#160;&#160;&#160;&#160;&#160;&#160;&#160;&#160;&#160;&#160;&#160;&#160;&#160;&#160;&#160;&#160;&#160;&#160;&#160;&#160;&#160;&#160;&#160;&#160;&#160;&#160;&#160;&#160;&#160;&#160;&#160;&#160;&#160;&#160;&#160;&#160;&#160;&#160;&#160;</text>
<polygon fill="white" stroke="transparent" points="1021.72,-365.92 1021.72,-384.92 1037.72,-384.92 1037.72,-365.92 1021.72,-365.92"/>
<polyline fill="none" stroke="black" points="1037.72,-365.92 1037.72,-384.92 "/>
<text text-anchor="start" x="1024.72" y="-372.32" font-family="sans-serif" font-size="12.00">D</text>
<polygon fill="white" stroke="transparent" points="1037.72,-365.92 1037.72,-384.92 1067.72,-384.92 1067.72,-365.92 1037.72,-365.92"/>
<polygon fill="none" stroke="black" points="1037.72,-365.92 1037.72,-384.92 1067.72,-384.92 1067.72,-365.92 1037.72,-365.92"/>
<text text-anchor="start" x="1040.72" y="-372.32" font-family="sans-serif" font-size="12.00">ACL</text>
<polygon fill="white" stroke="transparent" points="999.25,-427.5 999.25,-446.5 1015.25,-446.5 1015.25,-427.5 999.25,-427.5"/>
<polyline fill="none" stroke="black" points="1015.25,-427.5 1015.25,-446.5 "/>
<text text-anchor="start" x="1002.25" y="-433.9" font-family="sans-serif" font-size="12.00">U</text>
<polygon fill="white" stroke="transparent" points="1015.25,-427.5 1015.25,-446.5 1070.25,-446.5 1070.25,-427.5 1015.25,-427.5"/>
<polygon fill="none" stroke="black" points="1015.25,-427.5 1015.25,-446.5 1070.25,-446.5 1070.25,-427.5 1015.25,-427.5"/>
<text text-anchor="start" x="1018.25" y="-433.9" font-family="sans-serif" font-size="12.00">OHS, PL</text>
</g>
<!-- SecurityManagementContext&#45;&gt;CustomerManagementContext -->
<g id="edge6" class="edge">
<title>SecurityManagementContext&#45;&gt;CustomerManagementContext</title>
<path fill="none" stroke="black" stroke-width="2" d="M1159.92,-439.72C1166.88,-431.67 1173.02,-422.67 1176.99,-413.02 1182.04,-400.71 1178.17,-389 1170.29,-378.63"/>
<text text-anchor="middle" x="1254.49" y="-403.42" font-family="sans-serif" font-size="12.00"> &#160;&#160;&#160;&#160;&#160;&#160;&#160;&#160;&#160;&#160;&#160;&#160;&#160;&#160;&#160;&#160;&#160;&#160;&#160;&#160;&#160;&#160;&#160;&#160;&#160;&#160;&#160;&#160;&#160;&#160;&#160;&#160;&#160;&#160;&#160;&#160;&#160;&#160;&#160;</text>
<polygon fill="white" stroke="transparent" points="1147.29,-368.63 1147.29,-387.63 1163.29,-387.63 1163.29,-368.63 1147.29,-368.63"/>
<polyline fill="none" stroke="black" points="1163.29,-368.63 1163.29,-387.63 "/>
<text text-anchor="start" x="1150.29" y="-375.03" font-family="sans-serif" font-size="12.00">D</text>
<polygon fill="white" stroke="transparent" points="1163.29,-368.63 1163.29,-387.63 1193.29,-387.63 1193.29,-368.63 1163.29,-368.63"/>
<polygon fill="none" stroke="black" points="1163.29,-368.63 1163.29,-387.63 1193.29,-387.63 1193.29,-368.63 1163.29,-368.63"/>
<text text-anchor="start" x="1166.29" y="-375.03" font-family="sans-serif" font-size="12.00">ACL</text>
<polygon fill="white" stroke="transparent" points="1135.92,-429.72 1135.92,-448.72 1151.92,-448.72 1151.92,-429.72 1135.92,-429.72"/>
<polyline fill="none" stroke="black" points="1151.92,-429.72 1151.92,-448.72 "/>
<text text-anchor="start" x="1138.92" y="-436.12" font-family="sans-serif" font-size="12.00">U</text>
<polygon fill="white" stroke="transparent" points="1151.92,-429.72 1151.92,-448.72 1184.92,-448.72 1184.92,-429.72 1151.92,-429.72"/>
<polygon fill="none" stroke="black" points="1151.92,-429.72 1151.92,-448.72 1184.92,-448.72 1184.92,-429.72 1151.92,-429.72"/>
<text text-anchor="start" x="1154.92" y="-436.12" font-family="sans-serif" font-size="12.00">OHS</text>
</g>
<!-- ShipingManagementContext -->
<g id="node7" class="node">
<title>ShipingManagementContext</title>
<polygon fill="none" stroke="black" stroke-width="2" points="440.98,-189.17 442.04,-186.3 443.64,-183.45 445.76,-180.65 448.39,-177.9 451.54,-175.22 455.19,-172.61 459.34,-170.08 463.96,-167.65 469.06,-165.32 474.61,-163.11 480.59,-161.01 487.01,-159.04 493.82,-157.2 501.03,-155.49 508.6,-153.93 516.52,-152.52 524.76,-151.26 533.31,-150.15 542.13,-149.19 551.21,-148.38 560.51,-147.73 570.03,-147.23 579.72,-146.88 589.56,-146.68 599.52,-146.63 609.59,-146.72 619.72,-146.95 629.89,-147.31 640.08,-147.8 650.26,-148.41 660.39,-149.14 670.45,-149.98 680.42,-150.93 690.26,-151.97 699.95,-153.11 709.46,-154.34 718.77,-155.64 727.85,-157.02 736.67,-158.47 745.22,-159.98 753.46,-161.55 761.38,-163.16 768.95,-164.83 776.15,-166.53 782.97,-168.26 789.38,-170.03 795.37,-171.83 800.92,-173.65 806.01,-175.49 810.64,-177.35 814.78,-179.22 818.43,-181.1 821.58,-182.99 824.22,-184.9 826.34,-186.8 827.93,-188.71 829,-190.63 829.53,-192.55 829.53,-194.46 829,-196.38 827.93,-198.3 826.34,-200.21 824.22,-202.12 821.58,-204.02 818.43,-205.91 814.78,-207.79 810.64,-209.67 806.01,-211.52 800.92,-213.36 795.37,-215.18 789.38,-216.98 782.97,-218.75 776.15,-220.49 768.95,-222.19 761.38,-223.85 753.46,-225.46 745.22,-227.03 736.67,-228.54 727.85,-229.99 718.77,-231.37 709.46,-232.67 699.95,-233.9 690.26,-235.04 680.42,-236.09 670.45,-237.03 660.39,-237.87 650.26,-238.6 640.08,-239.22 629.89,-239.71 619.72,-240.07 609.59,-240.29 599.52,-240.38 589.56,-240.33 579.72,-240.13 570.03,-239.78 560.51,-239.28 551.21,-238.63 542.13,-237.82 533.31,-236.87 524.76,-235.75 516.52,-234.49 508.6,-233.08 501.03,-231.52 493.82,-229.82 487.01,-227.98 480.59,-226 474.61,-223.91 469.06,-221.69 463.96,-219.36 459.34,-216.93 455.19,-214.4 451.54,-211.79 448.39,-209.11 445.76,-206.36 443.64,-203.56 442.04,-200.72 440.98,-197.84 440.45,-194.95 440.45,-192.06 440.98,-189.17"/>
<text text-anchor="middle" x="634.99" y="-189.71" font-family="sans-serif" font-size="16.00">ShipingManagementContext</text>
</g>
<!-- ShipingManagementContext&#45;&gt;InventoryManagementContext -->
<g id="edge7" class="edge">
<title>ShipingManagementContext&#45;&gt;InventoryManagementContext</title>
<path fill="none" stroke="black" stroke-width="2" d="M714.97,-154.92C746.88,-140.79 784.24,-125.34 818.99,-113.62 851.82,-102.56 887.56,-92.43 921.71,-83.63"/>
<text text-anchor="middle" x="894.49" y="-117.02" font-family="sans-serif" font-size="12.00"> &#160;&#160;&#160;&#160;&#160;&#160;&#160;&#160;&#160;&#160;&#160;&#160;&#160;&#160;&#160;&#160;&#160;&#160;&#160;&#160;&#160;&#160;&#160;&#160;&#160;&#160;&#160;&#160;&#160;&#160;&#160;&#160;&#160;&#160;&#160;&#160;&#160;&#160;&#160;</text>
<polygon fill="white" stroke="transparent" points="902.71,-73.63 902.71,-92.63 918.71,-92.63 918.71,-73.63 902.71,-73.63"/>
<polyline fill="none" stroke="black" points="918.71,-73.63 918.71,-92.63 "/>
<text text-anchor="start" x="905.71" y="-80.03" font-family="sans-serif" font-size="12.00">D</text>
<polygon fill="white" stroke="transparent" points="918.71,-73.63 918.71,-92.63 940.71,-92.63 940.71,-73.63 918.71,-73.63"/>
<polygon fill="none" stroke="black" points="918.71,-73.63 918.71,-92.63 940.71,-92.63 940.71,-73.63 918.71,-73.63"/>
<text text-anchor="start" x="921.71" y="-80.03" font-family="sans-serif" font-size="12.00">CF</text>
<polygon fill="white" stroke="transparent" points="679.97,-144.92 679.97,-163.92 695.97,-163.92 695.97,-144.92 679.97,-144.92"/>
<polyline fill="none" stroke="black" points="695.97,-144.92 695.97,-163.92 "/>
<text text-anchor="start" x="682.97" y="-151.32" font-family="sans-serif" font-size="12.00">U</text>
<polygon fill="white" stroke="transparent" points="695.97,-144.92 695.97,-163.92 750.97,-163.92 750.97,-144.92 695.97,-144.92"/>
<polygon fill="none" stroke="black" points="695.97,-144.92 695.97,-163.92 750.97,-163.92 750.97,-144.92 695.97,-144.92"/>
<text text-anchor="start" x="698.97" y="-151.32" font-family="sans-serif" font-size="12.00">OHS, PL</text>
</g>
<!-- ShipingManagementContext&#45;&gt;OrderManagementContext -->
<g id="edge8" class="edge">
<title>ShipingManagementContext&#45;&gt;OrderManagementContext</title>
<path fill="none" stroke="black" stroke-width="2" d="M634.99,-147.43C634.99,-129.82 634.99,-109.7 634.99,-92.25"/>
<text text-anchor="middle" x="690.99" y="-117.02" font-family="sans-serif" font-size="12.00">Customer/Supplier</text>
<polygon fill="white" stroke="transparent" points="627.99,-83.25 627.99,-100.25 641.99,-100.25 641.99,-83.25 627.99,-83.25"/>
<text text-anchor="start" x="629.99" y="-88.65" font-family="sans-serif" font-size="12.00">D</text>
<polygon fill="white" stroke="transparent" points="627.99,-138.43 627.99,-155.43 641.99,-155.43 641.99,-138.43 627.99,-138.43"/>
<text text-anchor="start" x="629.99" y="-143.83" font-family="sans-serif" font-size="12.00">U</text>
</g>
</g>
</svg>
